<svg width="16" height="16" viewBox="0 0 16 16" fill="none" xmlns="http://www.w3.org/2000/svg">
<g clip-path="url(#clip0)">
<path d="M8.06503 8.19522C8.12968 8.17378 8.19498 8.15461 8.26061 8.13545C8.13618 7.85378 8.00038 7.57147 7.85841 7.29272C5.30523 8.05748 2.85537 8.00225 2.76765 7.999C2.76603 8.05228 2.76343 8.10361 2.76343 8.15689C2.76343 9.43104 3.24392 10.5921 4.03401 11.4703C4.03336 11.469 4.03206 11.4677 4.03206 11.4677C4.03206 11.4677 5.38938 9.06068 8.06503 8.19522Z" fill="white"/>
<path d="M7.44709 6.52956C6.5891 5.00461 5.67231 3.76034 5.60636 3.6723C4.22337 4.3253 3.19125 5.59945 2.86963 7.13512C3.00023 7.13642 5.06642 7.16241 7.44709 6.52956Z" fill="white"/>
<path d="M10.9966 4.43577C10.1233 3.66614 8.97686 3.19897 7.72187 3.19897C7.31903 3.19897 6.92821 3.24771 6.55298 3.33802C6.6277 3.43776 7.55944 4.67357 8.40703 6.23102C10.2783 5.52896 10.9846 4.45396 10.9966 4.43577Z" fill="white"/>
<path d="M6.53451 3.34296C6.52866 3.34361 6.52379 3.34426 6.51794 3.34686C6.52737 3.34426 6.53321 3.34296 6.53321 3.34296H6.53451Z" fill="white"/>
<path d="M4.67401 12.0658L4.67499 12.0639C4.63828 12.0353 4.59929 12.0093 4.56323 11.9788C4.62918 12.0324 4.67401 12.0658 4.67401 12.0658Z" fill="white"/>
<path d="M8.78845 6.96956C8.90378 7.20639 9.01489 7.4468 9.11852 7.6885C9.15458 7.77557 9.19032 7.86036 9.22508 7.94548C10.9287 7.73106 12.607 8.09199 12.6788 8.10661C12.6674 6.9309 12.2467 5.85232 11.5512 5.00732C11.5414 5.02064 10.7465 6.17004 8.78845 6.96956Z" fill="white"/>
<path d="M8.56561 8.96808C5.63915 9.9885 4.68402 12.0443 4.67493 12.0638C5.51602 12.7204 6.57186 13.1151 7.72159 13.1151C8.40804 13.1151 9.06234 12.9754 9.65751 12.7223C9.58376 12.2889 9.29592 10.7705 8.59777 8.95703C8.58737 8.96125 8.57665 8.9645 8.56561 8.96808Z" fill="white"/>
<path d="M7.72192 0.157227C3.30365 0.157227 -0.278076 3.7396 -0.278076 8.15723C-0.278076 12.5755 3.30332 16.1566 7.72192 16.1566C12.1402 16.1566 15.7219 12.5755 15.7219 8.15723C15.7219 3.7396 12.1399 0.157227 7.72192 0.157227ZM13.0713 10.4174C12.9261 10.7621 12.7458 11.0938 12.5359 11.4034C12.3283 11.711 12.0898 11.9998 11.827 12.2626C11.5642 12.5248 11.2757 12.7633 10.9684 12.9715C10.6581 13.1811 10.3255 13.361 9.98174 13.5069C9.63088 13.6547 9.2641 13.7684 8.89114 13.8451C8.50844 13.9237 8.11502 13.9637 7.7216 13.9637C7.32818 13.9637 6.93476 13.9237 6.55206 13.8451C6.1791 13.7684 5.81167 13.6547 5.46146 13.5069C5.11709 13.361 4.78475 13.1807 4.47449 12.9715C4.16749 12.7633 3.87835 12.5248 3.61585 12.2626C3.35303 11.9998 3.11457 11.7113 2.90698 11.4034C2.69744 11.0938 2.51746 10.7617 2.37159 10.4174C2.22345 10.0665 2.10942 9.69972 2.03275 9.32612C1.9551 8.94342 1.91547 8.55065 1.91547 8.15723C1.91547 7.7638 1.9551 7.37038 2.03275 6.98833C2.10942 6.61473 2.22345 6.2473 2.37159 5.89708C2.51746 5.55239 2.69776 5.22005 2.90698 4.91012C3.11457 4.60247 3.35303 4.3143 3.61585 4.05083C3.87835 3.78866 4.16716 3.55085 4.47449 3.34261C4.78475 3.13274 5.11709 2.95243 5.46146 2.80657C5.81167 2.6581 6.1791 2.54439 6.55206 2.46837C6.93476 2.3904 7.32818 2.35044 7.7216 2.35044C8.11502 2.35044 8.50844 2.3904 8.89114 2.46837C9.2641 2.54439 9.63088 2.6581 9.98174 2.80657C10.3258 2.95243 10.6581 3.13274 10.9684 3.34261C11.2754 3.55085 11.5642 3.78866 11.827 4.05083C12.0898 4.3143 12.3283 4.60214 12.5359 4.91012C12.7458 5.21972 12.9261 5.55239 13.0713 5.89708C13.2198 6.2473 13.3335 6.61473 13.4095 6.98833C13.4881 7.37038 13.5281 7.7638 13.5281 8.15723C13.5281 8.55065 13.4881 8.94342 13.4095 9.32612C13.3335 9.69972 13.2201 10.0665 13.0713 10.4174Z" fill="white"/>
<path d="M9.52759 8.72764C10.178 10.5151 10.4418 11.9705 10.4928 12.2694C11.6058 11.5183 12.3969 10.3254 12.6171 8.94336C12.5151 8.91054 11.1279 8.47132 9.52759 8.72764Z" fill="white"/>
</g>
<defs>
<clipPath id="clip0">
<rect width="16" height="16" fill="white"/>
</clipPath>
</defs>
</svg>
